<svg xmlns="http://www.w3.org/2000/svg" width="22.187" height="22.187" viewBox="0 0 22.187 22.187">
  <g id="Layer_2" data-name="Layer 2" transform="translate(-3 -3)">
    <path id="Tracé_27" data-name="Tracé 27" d="M15.707,11.413a1.707,1.707,0,1,1,1.707-1.707A1.707,1.707,0,0,1,15.707,11.413ZM15.707,9.707Z" transform="translate(-1.613 -0.733)" fill="#46aed8"/>
    <path id="Tracé_28" data-name="Tracé 28" d="M14.093,25.187A11.093,11.093,0,1,1,25.187,14.093,11.093,11.093,0,0,1,14.093,25.187Zm0-20.48a9.387,9.387,0,1,0,9.387,9.387A9.387,9.387,0,0,0,14.093,4.707Z" fill="#46aed8"/>
    <path id="Tracé_29" data-name="Tracé 29" d="M15.707,22.533A1.707,1.707,0,0,1,14,20.827v-5.12a1.707,1.707,0,1,1,3.413,0v5.12A1.707,1.707,0,0,1,15.707,22.533Zm0-6.827Z" transform="translate(-1.613 -1.613)" fill="#46aed8"/>
  </g>
</svg>
