<svg id="remove" xmlns="http://www.w3.org/2000/svg" width="41.281" height="41.281" viewBox="0 0 41.281 41.281">
  <path id="Tracé_23" data-name="Tracé 23" d="M20.641,0A20.641,20.641,0,1,0,41.281,20.641,20.663,20.663,0,0,0,20.641,0Zm0,0" fill="currentColor"/>
  <path id="Tracé_24" data-name="Tracé 24" d="M171.178,168.745a1.72,1.72,0,1,1-2.432,2.432l-5.169-5.169-5.169,5.169a1.72,1.72,0,0,1-2.432-2.432l5.169-5.169-5.169-5.169a1.72,1.72,0,0,1,2.432-2.432l5.169,5.169,5.169-5.169a1.72,1.72,0,0,1,2.432,2.432l-5.169,5.169Zm0,0" transform="translate(-142.936 -142.936)" fill="#fafafa"/>
</svg>
