<svg xmlns="http://www.w3.org/2000/svg" width="10.418" height="11.452" viewBox="0 0 10.418 11.452">
  <path id="reset_undo_arrow_icon_149006" d="M32.263,2.871a5.223,5.223,0,0,0-2.268-1.543L32.844.739A.115.115,0,0,0,32.933.6l-.1-.5a.116.116,0,0,0-.137-.089L28.571.865a.116.116,0,0,0-.088.145l1.149,4.049a.116.116,0,0,0,.143.08L30.266,5a.116.116,0,0,0,.08-.143l-.824-2.9A4.469,4.469,0,1,1,24.9,3.361a.115.115,0,0,0-.011-.161l-.38-.34a.116.116,0,0,0-.165.011,5.209,5.209,0,1,0,7.921,0Z" transform="translate(-23.093 -0.011)" fill="#fff"/>
</svg>
