<svg xmlns="http://www.w3.org/2000/svg" width="22.485" height="22.309" viewBox="0 0 22.485 22.309">
  <g id="magnifyingglass_102622" transform="translate(-0.001 -2.402)">
    <path id="Tracé_3" data-name="Tracé 3" d="M22.1,21.995l-6.164-6.15a1.322,1.322,0,0,0,.138-.4A8.523,8.523,0,0,0,17.25,11.9c.028-.291.041-.6.041-.887a8.7,8.7,0,0,0-.485-2.854A8.535,8.535,0,0,0,14.77,4.915a8.7,8.7,0,0,0-12.231,0A8.645,8.645,0,0,0,.295,13.254a8.388,8.388,0,0,0,2.244,3.893,8.608,8.608,0,0,0,6.109,2.521,8.828,8.828,0,0,0,4.765-1.413l.222-.139,6.192,6.178a1.275,1.275,0,0,0,.72.4.427.427,0,0,0,.138.014,1.03,1.03,0,0,0,.443-.125,2.623,2.623,0,0,0,.54-.429l.277-.277a2.624,2.624,0,0,0,.429-.54,1,1,0,0,0,.111-.5v-.111A1.115,1.115,0,0,0,22.1,21.995Zm-6.58-9.128a7.136,7.136,0,0,1-6.871,5.278,7.292,7.292,0,0,1-5.029-2.078,7.216,7.216,0,0,1,0-10.043A7.241,7.241,0,0,1,8.648,3.932a6.786,6.786,0,0,1,5.014,2.092,7.042,7.042,0,0,1,1.856,6.843Z" transform="translate(0 0)" fill="#fff"/>
  </g>
</svg>
