<svg xmlns="http://www.w3.org/2000/svg" width="27.5" height="22.345" viewBox="0 0 27.5 22.345">
  <g id="shopping-cart-symbol-for-e-commerce_icon-icons.com_56124" transform="translate(0 -45.479)">
    <g id="Groupe_75" data-name="Groupe 75" transform="translate(0 45.479)">
      <path id="Tracé_18" data-name="Tracé 18" d="M4.859,45.479H0V47.2H3.735l6.016,13.75H24.062V59.229H10.875Z" transform="translate(0 -45.479)" fill="#46aed8"/>
      <path id="Tracé_19" data-name="Tracé 19" d="M151.628,106.131l3.438,8.594H167.1l3.438-8.594Zm14.307,6.875h-9.7l-2.063-5.156H168Z" transform="translate(-143.034 -102.693)" fill="#46aed8"/>
      <path id="Tracé_20" data-name="Tracé 20" d="M184.533,348.737a2.578,2.578,0,1,0,2.577,2.578A2.578,2.578,0,0,0,184.533,348.737Zm0,3.438a.859.859,0,1,1,.859-.859A.86.86,0,0,1,184.533,352.174Z" transform="translate(-171.642 -331.549)" fill="#46aed8"/>
      <path id="Tracé_21" data-name="Tracé 21" d="M336.146,348.737a2.578,2.578,0,1,0,2.578,2.578A2.579,2.579,0,0,0,336.146,348.737Zm0,3.438a.859.859,0,1,1,.859-.859A.861.861,0,0,1,336.146,352.174Z" transform="translate(-314.662 -331.549)" fill="#46aed8"/>
    </g>
  </g>
</svg>
