<svg xmlns="http://www.w3.org/2000/svg" width="22" height="25.667" viewBox="0 0 22 25.667">
  <g id="user" transform="translate(-4 -2)">
    <path id="Tracé_30" data-name="Tracé 30" d="M15.417,14.833A6.417,6.417,0,1,0,9,8.417a6.417,6.417,0,0,0,6.417,6.417Zm0-11a4.583,4.583,0,1,1-4.583,4.583A4.583,4.583,0,0,1,15.417,3.833Z" transform="translate(-0.417)" fill="currentColor"/>
    <path id="Tracé_31" data-name="Tracé 31" d="M15.917,18H14.083A10.083,10.083,0,0,0,4,28.083.917.917,0,0,0,4.917,29H25.083A.917.917,0,0,0,26,28.083,10.083,10.083,0,0,0,15.917,18ZM5.888,27.167a8.25,8.25,0,0,1,8.2-7.333h1.833a8.25,8.25,0,0,1,8.195,7.333Z" transform="translate(0 -1.333)" fill="currentColor"/>
  </g>
</svg>
